<?xml version="1.0" encoding="utf-8"?>
<!-- Generator: Adobe Illustrator 22.1.0, SVG Export Plug-In . SVG Version: 6.00 Build 0)  -->
<svg version="1.1" id="Layer_1" xmlns="http://www.w3.org/2000/svg" xmlns:xlink="http://www.w3.org/1999/xlink" x="0px" y="0px"
	 viewBox="0 0 1920 1080" style="enable-background:new 0 0 1920 1080;" xml:space="preserve">
<style type="text/css">
	.st0{fill:#FEFEFE;}
	.st1{fill:#A3CF33;}
	.st2{fill:#006A98;}
	.st3{fill:#19AFD6;}
	.st4{fill:#009833;}
	.st5{fill:#686565;}
	.st6{fill:#ADD22A;}
	.st7{fill:#92C60E;}
	.st8{fill:#B6D533;}
	.st9{fill:#2BA733;}
	.st10{fill:#009033;}
	.st11{fill:#009226;}
	.st12{fill:#94C711;}
	.st13{fill:#92C70D;}
	.st14{fill:#038A0F;}
	.st15{fill:#006632;}
	.st16{fill:#00870E;}
	.st17{fill:#006978;}
	.st18{fill:#006AA9;}
	.st19{fill:#09588E;}
	.st20{fill:#004B0D;}
	.st21{fill:#1CB8DD;}
	.st22{fill:#1CB7DD;}
	.st23{fill:#016695;}
	.st24{fill:#006191;}
	.st25{fill:#1CB8DF;}
	.st26{fill:#004F00;}
	.st27{fill:#026796;}
	.st28{fill:#1CB8DE;}
	.st29{fill:#1AB2D9;}
	.st30{fill:#0BA8D0;}
	.st31{fill:#008B15;}
	.st32{fill:#019728;}
	.st33{fill:#02982E;}
	.st34{fill:#1CB2E7;}
	.st35{fill:#06A6D1;}
	.st36{fill:#13AAB0;}
	.st37{fill:#1DB2EE;}
	.st38{fill:#12ACD5;}
	.st39{fill:#0BA7D2;}
	.st40{fill:#00538A;}
	.st41{fill:#09A6D1;}
	.st42{fill:#016898;}
	.st43{fill:#17ACD5;}
	.st44{fill:#11AAD3;}
	.st45{fill:#19B2D9;}
	.st46{fill:#02A4D1;}
	.st47{fill:#038915;}
	.st48{fill:#089022;}
	.st49{fill:#FDFDFD;}
	.st50{fill:#006633;}
	.st51{fill:#009624;}
	.st52{fill:#00A133;}
	.st53{fill:#008915;}
	.st54{fill:#008D1D;}
	.st55{fill:#008914;}
	.st56{fill:#009326;}
	.st57{fill:#008913;}
	.st58{fill:#008812;}
	.st59{fill:#004B0F;}
	.st60{fill:#006626;}
	.st61{fill:#045015;}
	.st62{fill:#005B26;}
</style>
<g>
	<g>
		<path class="st0" d="M536,537c0-36.5,0-73-0.1-109.5c0-3,0.6-3.6,3.6-3.6c281,0.1,562,0.1,843,0c3,0,3.6,0.6,3.6,3.6
			c-0.1,75.7-0.1,151.3,0,227c0,3-0.6,3.6-3.6,3.6c-281-0.1-562-0.1-843,0c-3,0-3.6-0.6-3.6-3.6c0.1-36.8,0.1-73.7,0.1-110.5
			c3.2,0.4,3.4,3.5,4.9,5.4c1.2,1.5,1.8,3.4,2.9,5.1c1,1.7,2.3,3.3,3.2,5c11.5,20.8,23.6,41.3,35.5,61.9c2.8,4.9,5.8,9.7,8.4,14.7
			c2.8,5.3,7,7.6,12.9,7.6c18.5-0.1,36.9,0,55.4-0.1c15.3,0,30.6-0.2,45.8,0.1c6.5,0.1,11.1-2.3,14.2-8.1
			c3.4-6.1,6.8-12.2,10.4-18.2c10-16.5,19.5-33.3,29.1-50c3.8-6.5,7.5-13,11.3-19.4c3.2-5.3,2.8-10.2-0.3-15.4
			c-11.6-19.4-22.6-39.2-34.1-58.7c-5.7-9.6-11.4-19.1-16.8-28.9c-2.9-5.2-6.9-7.7-12.9-7.6c-11.8,0.1-23.6,0-35.4,0.1
			c-21.8,0.1-43.5,0.2-65.2-0.1c-7-0.1-11.6,2.5-14.9,8.5c-4.8,8.7-9.7,17.4-14.9,25.9c-0.7,1.1-1.3,2.3-1.9,3.4
			c-11.1,18.1-21.3,36.7-32,54.9C540.2,532.7,539.6,536.1,536,537z"/>
		<path class="st1" d="M543,555.1c-2.3-3.7-4.7-7.4-7-11.1c0-2.3,0-4.7,0-7c10.3-17.6,20.5-35.1,30.8-52.7c1.9-3.3,4-6.5,6-9.7
			c1.4-0.3,1.5-1.4,1.3-2.6c5.7-10.1,11.4-20.2,17.3-30.2c2.2-3.8,5.8-5.8,10.3-5.8c23.1,0,46.1,0.1,69.2,0.2
			c0.7,1.8-0.3,3.3-1.2,4.6c-6.7,11.2-13.2,22.6-19.6,34c-0.5,0.7-1,1.5-1.4,2.3c-0.4,0.8-0.8,1.6-1.3,2.4c-0.6,0.9-1.2,2-2.6,1.7
			c-0.4,0.3-0.6-1.4-1-0.2c-0.4,1.1-0.2,3-2.3,1.5c-1.2-3-3.4-4.2-6.6-4.1c-3.5,0.2-7,0-10.5,0.1c-5.2,0.1-5.8,0.7-5.8,5.8
			c-0.1,8.2,0.1,16.3-0.1,24.5c-0.1,1.9,0.9,4.9-2.7,5c-0.3-11.5,0-23-0.1-34.4c0.1-0.7-1.1,0-0.4-0.1c0.3,17.3,0.6,34.6,1.2,51.9
			c-0.2,2.3-0.8,4.4-3.1,5.4c-2.7,0.9-5.5,0.8-8.4,0.8c-14.7,0.1-29.5-0.1-44.2,0.1c-0.4,0.2-0.9,0.5-1.3,0.8
			c-0.4,0.3-0.8,0.6-1.2,0.9c-5.4,2-7.1,7.1-9.8,11.4C547.2,552.6,546.8,555.9,543,555.1z"/>
		<path class="st2" d="M731.2,617.2c-4.3,7.6-8.5,15.4-13,22.9c-2,3.3-5.3,4.9-9.3,4.9c-16.7-0.1-33.3-0.1-50-0.1
			c-4-2.3-4.9-6.8-7.3-10.2c-0.4-0.8-0.7-1.6-1-2.4c-0.1-0.4-0.2-0.8-0.2-1.2c0.1-1.1-0.6-1.6-1.5-2c-3-2.6-3.9-6.5-6.3-9.5
			c-0.6-0.9-1.2-1.9-1.8-2.8c-0.3-0.4-0.5-0.7-0.7-1.1c-1.1-2.2-2.1-4.4-3.3-6.6c-1.5-2.7-3-5.3-2-8.6c4.8-8.7,5.8-18.1,5.7-28
			c-0.3-26.4-0.1-52.9-0.1-79.3c0-2-0.2-4,0.4-6c0.3-1.1,0.4-2.8,2.5-2.2c1.5,2.1,1.1,4.5,1.1,6.7c0,14.9,0,29.8,0,44.8
			c-0.1,7.6,0.1,15.2-0.1,22.8c0,0.6-0.2,1.2-0.4,1.8c-1,7.2,0,14.5-0.5,20.7c0.2,1.8,1.3,1.1,0.6,1.2c0,0-0.1,0-0.1-0.1
			c-0.9-7-0.6-14.1-0.2-21.2c2-1.7,4.4-1.2,6.6-1.2c11.4-0.2,22.8,0.2,34.1-0.2c0.5-0.1,1-0.4,1.4-0.6c2.6-1.5,5.7-2.5,7.5-5.1
			c0.7-0.7,1.5-1.2,2.6-0.9c2.5,1.8,2.7,4.7,3.4,7.4c0,1.2,0,2.4,1.5,2.8c2.4,2.4,3.7,5.5,5.5,8.3c1.2,1.9,2.3,3.7,2.9,5.9
			c0.1,0.4,0.1,0.9,0.1,1.3c0,1.6,0.7,2.8,2.2,3.4c2.2,2.2,3.9,4.8,4.7,7.9c0,1.8,0.4,3.4,2.3,4.1c3,3.1,4.8,7.1,7,10.7
			c0.6,1.5,1.4,2.8,2.3,4.2C729.1,612.2,731.8,614,731.2,617.2z"/>
		<path class="st3" d="M706,573c-2-3-3.9-6.1-5.9-9.1c-0.8-0.4-1-1.1-1.1-1.9c-1-2.7-2.1-5.5-3.1-8.2c-0.8-0.2-1.2-0.6-1.1-1.5
			c2.5-2.6,5.3-4.9,8.5-6.7c2.5-0.2,2-2.4,2.4-3.9c2.8-5.5,5.6-11,6.2-17.2c0.1-1.2,0.2-2.8,2.2-2.6c0.3,0.6,0.4,1.2,0.4,1.4
			c-0.6-2.7-1.1-5.8-0.7-8.9c0.2-1.5,0.9-2.7,1.7-3.9c1.5-3.4,3.4-6.5,5.3-9.7c0.8-1.3,1.7-2.5,2.4-3.9c0.6-1.1,1.2-2.2,1.8-3.4
			c0.7-1.3,1.6-2.4,2.3-3.7c0.5-0.9,1.1-1.8,2.2-2.2c1.4-0.5,1.9-1.6,1.7-3.1c0-0.7,0-1.3,0.3-2c1.3-3.2,2.5-6.5,5.8-8.3
			c11.7,20.1,23.3,40.2,35,60.2c2.2,3.8,2.6,7.7,0.5,11.4c-13.8,23.8-27.7,47.6-41.5,71.4c-1.4-2.4-2.7-4.8-4.1-7.2
			c0.3-1.8-1.2-2.7-2.1-3.9c-2.3-3.7-4.7-7.4-7-11c-1.5-0.8-2.1-2.2-2.2-3.9c-1.6-2.7-3.2-5.4-4.8-8.2c-1.1-1.1-2.3-2.1-2.2-3.9
			l0.3,0C708.9,576.6,708,574.5,706,573z"/>
		<path class="st3" d="M652,633.9c2.3,3.6,4.6,7.3,6.8,10.9c-19.1,0-38.2,0.1-57.4,0.1c-4.6,0-8.1-2.1-10.3-5.9
			c-14.9-25.7-29.7-51.4-44.6-77.2c-0.5-0.8-0.6-1.9-0.8-2.8c1.7-1,3.1-0.1,4.6,0.4c0.5,0.3,1,0.5,1.5,0.8
			c18.7,0.7,37.5,0.2,56.2,0.2c0.3,0,0.6-0.1,0.8-0.1c0.5-0.1,1-0.1,1.6,0c2.3,1.3,2.7,3.9,3.9,5.9c0.1,0.4,0.2,0.9,0.3,1.3
			c-0.2,1.6,1,2.9,1.4,4.3c1,4.8-0.6,9.3-1.4,13.9c-0.8,2.2-2.3,3.4-4.6,3.6c-3.2-0.4-6.4-0.2-9.5-1.1c-4.3-0.2-4.4,3-4.9,5.9
			c-0.7,3.8-3.1,6.9-5.2,10c-2.1,3.2-2.4,5.5,0.8,7.8c1.2,2.5,3.8,1.5,5.7,2.4c1.2,0.1,2.4,0.3,3.5,0.5c5.2,1,10.4,0.6,15.4-1
			c6.2-3.8,12.9-6.8,18.8-11.2c1.1,2,2.1,4,3.2,6.1c0.2,2.7,1.8,4.8,3.2,6.9l0,0c0.9,0.8,0.7,2.5,2.1,2.9c2.3,3.4,4.5,6.9,6.8,10.3
			c0.8,0.4,1,1.1,1,1.9c0,0.3,0,0.7,0,1C651,632.8,651.2,633.5,652,633.9z"/>
		<path class="st4" d="M721.9,501c-1.7,3.3-3.5,6.7-5.2,10c-0.2,0-0.4,0.1-0.5,0c-1.4-1-1.8-1-2.9,0.2c-1.3-0.8-1.5-2.1-1.6-3.4
			c-0.7-5.8-3.3-10.9-5.6-16.2c-1.4-4.9-4.7-7.8-9.6-9c-6.9-3.4-14.1-4.6-21.8-4.2c-6.6,0.3-13.3,0.1-20,0c-2,0-4,0.1-5.7-1.2
			c-0.4-0.6-0.3-1.1,0.3-1.6c10.9-0.3,21.8,0,30-0.2c-8-0.1-18.7,0.1-29.4-0.1c-0.3-0.1-0.5-0.3-0.8-0.4c7.3-12.9,14.7-25.9,22-38.8
			c12.6-0.1,25.3-0.1,37.9-0.1c4.1,0,7.5,1.9,9.6,5.4c6.4,10.9,12.6,21.8,18.8,32.8c-1.7,3-3.5,6-5.2,8.9c-1.4,0.6-1.2,2-1.4,3.1
			c0,0.7-0.2,1.3-0.7,1.7c-0.6,0.7-1.3,1.5-1.9,2.2c-1.2,1-2.4,2.1-2.2,3.8c-0.6,1.1-1.2,2.1-1.8,3.2
			C722.8,498.1,721.7,499.2,721.9,501z"/>
		<path class="st5" d="M886.2,479.7c0-12.3,0.1-24.6-0.1-37c0-3,0.7-4.1,3.9-4c10.7,0.2,21.3-0.1,32,0.2
			c16.8,0.6,25.9,10.1,26.2,26.9c0.4,20.5-9.8,30.9-30.2,31.1c-3,0-6,0.3-9-0.1c-4.1-0.5-5.6,0.9-5.2,5.1c0.4,5.1,0,10.3,0.1,15.5
			c0.1,2.5-0.6,3.4-3.3,3.5c-14.4,0.6-14.4,0.7-14.4-13.4C886.2,498.4,886.2,489,886.2,479.7z"/>
		<path class="st5" d="M892.1,563.7c-0.1,1.1-0.2,2-0.1,2.8c0.3,4.5-1.5,6-6.2,5.2c-6.2-1-12.6-1.2-18.9-1.7c-2.5-0.2-5,0.3-7.4,1.1
			c-3.4,1.2-5.6,3.5-5.9,7.3c-0.3,3.7,1,6.6,4.5,8.1c3.3,1.5,6.7,2.9,10.1,4.2c2.5,1,5,1.7,7.5,2.7c15.6,6.2,20.9,12.2,17.9,32.3
			c-2,13.3-13.6,21.2-28.8,20.8c-8.2-0.2-16.2-1.7-24.2-3.4c-2.4-0.5-2.8-1.5-2.7-3.7c0.3-11.1,0.2-10.9,10.9-9.8
			c5.6,0.6,11.3,1.1,16.9,1c7.3-0.1,11-3.7,11.6-9.9c0.4-4.6-1.2-7.8-5.4-9.6c-3.5-1.5-7.1-2.7-10.7-4.1c-3.3-1.2-6.6-2.3-9.8-3.8
			c-12.5-5.9-16.8-15-14.3-29.6c1.8-10.7,9.6-17.3,22-19c10.4-1.4,20.6,0.9,30.7,2.5C894.8,558,891.3,561.8,892.1,563.7z"/>
		<path class="st5" d="M1187.8,462.8c3.7-1.1,6.8-2.3,10-3c15.2-3.5,25.4,3.6,27,18.9c1.4,13.1,0.5,26.3,0.8,39.4
			c0,2.1-0.7,2.8-2.9,3c-14.2,1.2-14.1,1.3-14.2-12.6c0-7.7,0.2-15.3-0.3-23c-0.7-10.8-3.6-12.9-14.4-11.5c-4.4,0.5-6.5,2-6.2,7.2
			c0.5,12,0.1,24,0.2,36c0,3-0.8,3.9-3.9,4c-13.1,0.2-13.1,0.3-13.1-12.6c0-22.5,0.1-45-0.1-67.4c0-3.9,0.9-5.1,4.9-5
			c12.1,0.2,12.1,0,12.1,12.3C1187.8,453,1187.8,457.6,1187.8,462.8z"/>
		<path class="st5" d="M960.9,612.2c0.2,6.4-0.5,12.6-2.8,18.6c-4.1,10.5-12.7,15.9-25.3,15.9c-12.8,0-21.8-5.4-25.5-16.3
			c-4.2-12.2-4.2-24.6,0.1-36.7c4.5-12.6,16.6-18.2,32-15.3c13.3,2.5,20.2,11.4,21.5,27.9C961,608.2,960.9,610.2,960.9,612.2z"/>
		<path class="st5" d="M1209.9,612c0.2,7.2-0.6,14.3-3.7,20.9c-4.9,10.5-14,13.8-24.6,13.7c-10.6,0-20-3.5-24.3-14.1
			c-5.5-13.7-5.6-27.7,0.3-41.3c4.6-10.7,16.5-15.4,30.7-12.9c13.3,2.3,20.3,11.2,21.7,27.7C1210,608,1209.9,610,1209.9,612z"/>
		<path class="st5" d="M1080.4,497.8c-5.2,0-10.3,0.1-15.5,0c-3.1-0.1-3.4,1.4-2.6,3.7c1.5,4.6,5,6.5,9.5,6.6
			c7.3,0.1,14.7,0.4,21.9-0.7c3.4-0.5,4.7,0.5,4.2,3.8c0,0.2,0,0.3,0,0.5c0.2,7.6,0.2,7.6-7.2,9c-7.2,1.3-14.5,2-21.8,1.6
			c-14.1-0.8-21-6.6-23.4-20.5c-1.3-7.9-1.3-15.9,0.7-23.8c3.6-14,15.6-21.1,31.8-18.8c15.6,2.2,23.6,13,21.9,29.4
			c-0.9,9.1-0.9,9.1-10,9.1C1086.7,497.8,1083.5,497.8,1080.4,497.8z"/>
		<path class="st5" d="M1061.3,612.2c0,9.7-0.1,19.3,0.1,29c0.1,3.1-0.9,4.2-3.9,3.9c-3-0.2-6,0-9-0.1c-0.7,0-1.7,0.2-1.9-0.1
			c-3.3-5-6.4-0.6-9.4,0.2c-12.4,3.6-26.2,1-28.2-17.1c-1.7-15.3-0.5-30.6-0.9-45.9c-0.1-1.8,0.5-2.9,2.5-2.7c0.5,0,1,0,1.5,0
			c12.6-0.3,12.6-0.3,12.6,12.3c0,9.8,0,19.7,0.3,29.5c0.3,8.3,3.5,10.7,11.5,9.5c8.5-1.2,8.5-1.2,8.5-9.8c0-12.5,0.1-25-0.1-37.5
			c0-3,0.7-4,3.9-4c12.6-0.2,12.6-0.3,12.6,12.3C1061.3,598.5,1061.3,605.3,1061.3,612.2z"/>
		<path class="st5" d="M1223.7,612c0-9.5,0.1-19-0.1-28.5c-0.1-3.4,1.1-4.4,4.3-4.2c2.8,0.2,5.7,0,8.5,0c0.7,0,1.7-0.2,1.9,0.1
			c3.5,5.4,6.7,0.5,9.7-0.4c13.8-4.4,25.2,1.8,27.7,15.9c2.8,15.8,0.8,31.9,1.3,47.9c0.1,1.8-0.9,2.3-2.4,2.2c-0.3,0-0.7,0-1,0
			c-13.2,0.5-13.1,0.5-13.2-12.6c0-9.3,0.1-18.7-0.4-28c-0.5-10.2-10-14.5-18.7-8.9c-1.9,1.2-1.3,2.9-1.3,4.4
			c-0.1,13.5-0.2,27,0.1,40.5c0.1,3.9-1.1,4.7-4.7,4.6c-11.7-0.2-11.7,0-11.7-11.6C1223.7,626.4,1223.7,619.2,1223.7,612z"/>
		<path class="st5" d="M1337,588.4c-0.1,7.2-0.1,7.2-7.3,6.5c-5.6-0.6-11.2-1.4-16.9-1c-3,0.2-6.4,0.1-6.8,4.2c-0.4,4,2.8,4.3,5.6,5
			c4.2,1,8.5,1.8,12.6,2.9c10.9,2.9,15.1,8.8,14.6,20.5c-0.5,10.8-6.3,17.6-16.6,19.4c-10.1,1.8-19.9-0.2-29.7-2
			c-2-0.4-2.3-1.5-2.2-3.2c0.2-2.8,0.5-5.7,0.4-8.5c-0.1-3.2,1.3-3.5,3.9-3.2c5.9,0.7,11.9,1.5,17.9,1.7c3.6,0.1,8.6,0.8,9.4-4.3
			c0.8-5.7-4.7-4.9-8-6c-3.6-1.1-7.5-1.5-11.2-2.6c-9.4-2.8-12.5-6.8-13.4-16.9c-0.8-9.3,3-16.4,10.6-20.3
			c8.6-4.3,17.5-2.7,26.4-1.6c1.2,0.2,2.3,0.5,3.4,0.7C1337,581.1,1337,581.1,1337,588.4z"/>
		<path class="st5" d="M1023,487.5c0,10-0.1,20,0.1,30c0,2.9-0.9,3.8-3.7,3.6c-3.1-0.2-6.3-0.3-9.5,0c-3.7,0.4-4.3-1.2-4.3-4.5
			c0.1-19.3,0-38.6,0.1-58c0-3.8-0.8-5.4-5-5.1c-4.6,0.4-9.3,0-14,0.1c-2.9,0.1-4.1-0.6-4.2-3.8c-0.2-11-0.3-11,10.8-11
			c16,0,32,0.1,48-0.1c3.5,0,4.5,1.1,4.4,4.5c-0.1,10.4,0.1,10.3-10.1,10.4c-4.1,0.1-9.4-1.8-12,0.8c-2.5,2.6-0.7,7.9-0.8,12.1
			C1022.9,473.5,1023,480.5,1023,487.5z"/>
		<path class="st5" d="M1088.6,561.2c8.1,0,8.1,0,8.1,8.3c0,10,0,10.2,9.8,9.9c4.6-0.2,5.5,1.4,5.4,5.7c-0.3,9.6-0.1,9.8-9.8,9.5
			c-4.5-0.1-5.7,1.2-5.5,5.6c0.4,8,0,16,0.1,24c0.1,5.8,1.3,6.8,7.2,6.9c2.3,0.1,5.9-1.6,6.8,0.9c1.2,3.7,0.8,7.9,1,11.9
			c0,1.2-1.4,1.2-2.3,1.4c-5.7,1.4-11.5,2-17.3,0.8c-6.4-1.4-9.8-5.3-11.1-12.5c-1.9-11.2-0.7-22.6-0.9-33.9
			c-0.1-3.3-0.4-4.5-4.4-5.2c-6.3-1.1-1.6-6.8-2.7-10.2c-0.6-1.9-1-5.2,2.9-4.6c4,0.5,4.4-1.6,4.1-4.7c-0.2-1.7,0-3.3,0-5
			C1080,561.2,1080,561.2,1088.6,561.2z"/>
		<path class="st5" d="M1147.5,473.9c-16.8-0.7-19.7,2.2-19.5,18.1c0,1.8,0.1,3.7,0.4,5.5c1.3,7.4,4.1,10.1,11.7,10.3
			c4.3,0.1,8.6-0.3,12.9-0.7c2.8-0.3,4.1,0.2,4.2,3.6c0.3,9.2,0.4,9.2-8.7,10.8c-5.3,0.9-10.6,1.1-15.9,0.7
			c-11.3-0.8-18.1-6.7-20.5-17.7c-1.8-8.5-1.9-17.2-0.3-25.8c2.5-12.7,9.4-18.7,22.2-19.6c7-0.5,13.9,0.8,20.8,2
			c2.1,0.3,2.6,1.3,2.6,3.4C1157.5,474.3,1157.5,474.3,1147.5,473.9C1147.2,473.9,1146.8,473.9,1147.5,473.9z"/>
		<path class="st5" d="M866.3,477.3c0,10.2,0,20.3,0,30.5c0,16.5-7.1,21.3-24.3,21.6c-1.2,0-2.5-0.1-2.6-1.6
			c-0.1-3.7-0.1-7.3-0.1-11c0-2,1.6-1.7,2.9-1.9c5.5-0.8,6.8-4.4,6.8-9.3c-0.1-20.3,0.1-40.6-0.1-61c0-4.3,0.7-6,5.6-5.9
			c11.7,0.4,11.7,0.1,11.8,11.6C866.2,459.3,866.2,468.3,866.3,477.3C866.2,477.3,866.2,477.3,866.3,477.3z"/>
		<path class="st5" d="M991.9,599c0,14-0.1,28,0.1,41.9c0,3.3-0.9,4.2-4.2,4.2c-12.6,0-12.6,0.2-12.6-12.7c0-24.8,0.1-49.6-0.1-74.4
			c0-3.9,1-5.1,5-5c11.8,0.2,11.8,0,11.8,12C991.9,576.4,991.9,587.7,991.9,599z"/>
		<path class="st4" d="M550,560.1c-1.4-0.3-2.8-0.7-4.2-1c-1.5-0.9-2.2-2.4-2.8-3.9c4.4-2.1,5.2-7,7.4-10.6c1.9-3.1,4.1-5.4,7.6-6.3
			c10.9-1.2,21.8-0.3,32.7-0.6c6.1-0.1,12.3,0.1,18.4-0.2c0.6-0.1,1.2,0,1.7,0.2c2,4.3-0.2,7.9-2.1,11.5c-1.3,0.1-1.2-0.7-1.2-1.7
			c-0.5,1.6,0.8,2.9,0.4,4.3c-0.3,1.1-1.1,2.6,1.2,1.4c1.4,2.2,1.4,4.4-0.4,6.4c-2.2,1.2-4.5,0.8-6.8,0.8
			c-16.7,0.1-33.4-0.1-50.1,0.1C551.1,560.5,550.5,560.4,550,560.1z"/>
		<path class="st5" d="M1123.7,612c0-9.3,0.2-18.7-0.1-28c-0.1-3.9,1.2-4.7,4.8-4.7c11.6,0.1,11.6,0,11.6,11.7
			c0,16.3-0.1,32.6,0.1,49c0,3.7-0.5,5.2-4.8,5.1c-11.6-0.3-11.7,0-11.7-11.7C1123.7,626.3,1123.7,619.2,1123.7,612z"/>
		<path class="st5" d="M1140.1,562.3c0,8.8,0,8.8-8.8,8.8c-7.5,0-7.5,0-7.5-7.6c0-10.3,0-10.3,8.9-10.3
			C1140.1,553.2,1140.1,553.2,1140.1,562.3z"/>
		<path class="st6" d="M574.1,472c0.8,2.2,0.4,2.9-1.3,2.6C573.2,473.8,573.7,472.9,574.1,472z"/>
		<path class="st0" d="M591.4,612.8c-4.9-1.8-5.5-4.2-2.2-8.5c2.4-3.1,3.9-6.9,5.7-10.3c1.2-2.5,0.9-6.1,5-6.3
			c3.2,1.8,6.6,1.2,10,1.2c2.2,0.1,2.8-2,4-3.2c1.8-5.7,2.1-11.5,1.1-17.4c-0.2-2.9-0.7-5.8,0.1-8.7c1-9.5,0.3-19.1,0.6-28.7
			c0.1-5.6-0.8-11.1,0.5-16.7c1.1-10.7,0.5-21.5,0.4-32.2c0-4,0.9-5.7,5.2-5.3c4.3,0.4,8.7,0.5,12.9,0c5.3-0.6,8.5,0.5,8.2,6.6
			c0.4,0.3,0.6,0.7,0.7,1.2c-0.1,0.5-0.3,0.9-0.8,1.1c-0.1,1.6-0.4,3.3-0.4,4.9c0,27.9-0.1,55.9,0.1,83.8
			c0.1,10.4-1.7,20.1-7.8,28.7c-3.3,4.4-8,7-12.9,9.1c-1.6,0.7-3.4,1.1-4.6,2.5c-5.2,1.5-10.4,1.4-15.7,1.2
			c-1.5-0.5-3.1-0.5-4.7-0.5C595,614.4,592.8,614.4,591.4,612.8z"/>
		<path class="st4" d="M649.1,475.9c0,0.4-0.1,0.7-0.1,1.1c1.8,2.1,1.4,4.7,1.5,7.1c0.3,6.3-0.6,12.6,0.6,18.9
			c0.9,1.5,2.4,1.6,3.9,1.6c8.3-0.1,16.5,0.3,24.8-0.2c1-0.2,2-0.2,2.9,0.3c0.6,1.5,1.2,3.1,3.3,3.1c1.5,0.8,1.9,2,1.7,3.5
			c-0.7,3.1-0.1,6.4-0.6,9.5c-0.1,0.5-0.2,1-0.4,1.5c-1.1,2.2-2.5,4.1-4.6,5.3c-0.5,0.2-1,0.4-1.6,0.5c-8,0.4-16,0.1-24,0.2
			c-1.8,0-3.7-0.5-5.2,1.1c-1.6,2.3-0.2,5.3-2.1,7.5c-0.5,0.3-1,0.3-1.5-0.1c-0.5-2.3,0-4.7-0.3-7.1c-0.1-0.7-1,0.4-0.4,0
			c0.8,2.5,0.8,5-0.1,7.5c-1.2,0.5-2.3,0.5-3.2-0.7c-0.4-17.2-0.1-34.3-0.2-51.5c0.1-1.5-0.4-3.2,1.4-4.1c0.6-0.8,1.3-1.6,1.9-2.4
			c1.5,8.3,0.2,16.6,0.6,23.1c0.6-7.1-0.6-16.1,0.5-25c0-0.8,0.4-1.4,1.1-1.8c0,0,0.1,0.1,0.1,0.1c0.3,0.2,0.4,0.4,0.3,0.5
			C649.3,475.8,649.2,475.9,649.1,475.9z"/>
		<path class="st7" d="M616.2,514.3c0.2,15.2,0.9,30.4,0.2,45.5c-0.6-0.2-1-0.6-1.2-1.2c-1.1-6.9-0.3-13.9-0.5-20.9
			c-0.1-1.9,1.4-3.7,0.4-5.6c0-18,0-36,0-54c0.4,0,0.7,0,1.1,0C616.2,490.1,616.2,502.2,616.2,514.3z"/>
		<path class="st8" d="M559.2,537.1c-0.7-1.5,0.6-1.1,1.2-1.1c17.6,0,35.1,0.1,52.7,0.1c-0.1,0.7-0.4,1.2-1.1,1.4
			c-16.6,1-33.3,0.2-49.9,0.4C561,538,560,537.8,559.2,537.1z"/>
		<path class="st9" d="M559.2,537.1c17.9-0.1,35.8-0.1,53.7-0.2c0.1,0.2,0.2,0.4,0.3,0.6c-0.5,1-1.2,1.3-2.1,0.6
			c-0.4,0-0.7,0-1.1-0.1c-9.4,1-18.9,0.4-28.3,0.4c-7.6,0-15.2,0.8-22.8-0.5C559,537.6,559.1,537.4,559.2,537.1z"/>
		<path class="st10" d="M558.9,537.9c17,0,34.1,0.1,51.1,0.1c-0.8,1.1-2,1-3.2,1c-15.3,0-30.6,0-45.9,0c-1,0-2,0-2.8-0.8
			C558.3,538,558.6,537.9,558.9,537.9z"/>
		<path class="st11" d="M647.9,476.8c0,9.1,0,18.1,0,27.2c-0.4,0-0.7,0-1.1,0c0-8.4,0-16.8,0-25.3
			C647.2,478,647.6,477.4,647.9,476.8z"/>
		<ellipse class="st12" cx="629.4" cy="475.4" rx="16.1" ry="0.3"/>
		<path class="st13" d="M645,481c-0.4,0.9-0.7,1.8-1.1,2.7c-0.1,0.5-0.5,0.7-1,0.5c0-0.3-0.1-0.7-0.1-1c0.2-1.7,0.3-3.5,0.5-5.8
			C644.1,479,644.5,480,645,481z"/>
		<path class="st14" d="M612.9,536.9c0.1-0.3,0.2-0.5,0.2-0.8c1.2-1.1,1.9-2.4,2-4.1c1.9,1.4,0.7,3.3,0.8,5c-0.3,0.3-0.6,0.5-1,0.6
			c-0.6,0-1.2-0.1-1.5-0.7L612.9,536.9z"/>
		<path class="st15" d="M648,537c0.3,0,0.6,0,0.9,0c2.8,3.3,1.4,7.3,1.6,11c0.3,6.1,0.4,6.4,6.6,6.5c8.5,0.1,16.9-0.2,25.4,0.1
			c3.1,0.1,5.8-1.4,8.8-1.4c1.3,0.2,2.3,0.7,2.9,1.9c-1.1,3.5-4.4,3.9-7.2,5c-0.3,0-0.6,0.1-0.9,0.2c-12.4,0.3-24.9,0.1-37.3,0.1
			c-1.6,0-3.3,0.1-4.7-1.1c-1.1-7.1-0.3-14.3-0.4-21.5c0.2-0.3,0.3-0.5,0.5-0.8c1,0,2,0,3,0C647.3,536.5,647.7,536.5,648,537z"/>
		<path class="st16" d="M642.9,484.3c0.3-0.2,0.6-0.3,1-0.5c0,17.7,0.1,35.5,0.1,53.2c0,0-0.1,0.2-0.1,0.2l-0.3,0.3
			c0,0-0.4-0.2-0.4-0.2c-0.1-15.2-0.2-30.5-0.3-45.7c0-2-0.1-4-0.2-5.9C642.8,485.2,642.9,484.7,642.9,484.3z"/>
		<path class="st17" d="M643.2,561c-0.1-0.3-0.1-0.6,0-1c0.5-0.4,1.1-0.5,1.8-0.5c14,0.2,28-0.4,42,0.3c0,0,0,0.3,0,0.3
			c0,0.3,0,0.6,0,0.8c-6.2,1.2-12.5,0.3-18.7,0.5c-7.8,0.2-15.5,0-23.3,0C644.3,561.5,643.7,561.4,643.2,561z"/>
		<path class="st18" d="M644,561c14.3,0,28.6,0,43-0.1c-1.5,1.7-3.4,1-5.1,1c-12.6,0.1-25.2,0-37.8,0c-0.3-0.2-0.4-0.4-0.3-0.7
			C643.8,561.1,643.9,561,644,561z"/>
		<path class="st19" d="M644,561c0,0.3,0,0.6,0,1c0,7.3,0,14.5,0,21.8c-0.3,0-0.6,0-0.9,0c0-7.6,0-15.2,0-22.8
			C643.5,561,643.7,561,644,561z"/>
		<path class="st20" d="M644,560l-0.4,0.1c0,0-0.4,0-0.4,0c0-7.6,0-15.2,0-22.7c0.2-0.1,0.5-0.2,0.8-0.1c0,7.3,0.1,14.6,0.1,21.8
			c0.3,0.2,0.4,0.5,0.3,0.7C644.2,559.9,644.1,560,644,560z"/>
		<path class="st21" d="M641.1,616c-2.3-1.7-3.9-3.8-3.2-6.9C639.2,611.2,640.5,613.4,641.1,616z"/>
		<path class="st22" d="M706,573c3.1,0.9,3.8,3.1,3.2,5.9C708.1,577,707,575,706,573z"/>
		<path class="st23" d="M708.9,579c0.8,1.3,2,2.3,2.2,3.9C708.2,582.8,708,581.2,708.9,579z"/>
		<path class="st24" d="M715.9,591.1c0.7,1.3,1.4,2.6,2.2,3.9C715.4,594.7,714.8,593.3,715.9,591.1z"/>
		<path class="st25" d="M725,606c2.1,0.6,3.4,1.6,2.1,3.9C726.4,608.6,724.8,607.8,725,606z"/>
		<path class="st26" d="M694.2,555.1c-0.7-0.3-1.4-0.6-2.1-1c0.4-1.5,1.4-2,2.9-1.6c0.3,0.4,0.7,0.8,1,1.2
			C695.3,554.2,694.7,554.7,694.2,555.1z"/>
		<path class="st27" d="M699,562c0.4,0.6,0.7,1.3,1.1,1.9c-0.5,0.7-1,0.6-1.5,0C698,563.2,698.2,562.5,699,562z"/>
		<path class="st28" d="M643.2,618.8c-2.3,0.2-1.8-1.6-2.1-2.9C642.3,616.4,642.9,617.5,643.2,618.8z"/>
		<path class="st27" d="M651,631c-0.3-0.6-0.7-1.3-1-1.9c0.5-0.7,1-0.6,1.5,0C652,629.8,651.8,630.5,651,631z"/>
		<path class="st29" d="M652,633.9c-0.5,0.7-1,0.6-1.5,0c-0.6-0.8-0.4-1.4,0.4-1.9C651.4,632.6,651.7,633.3,652,633.9z"/>
		<path class="st0" d="M694.9,552.6c-1,0.5-1.9,1-2.9,1.6c-13.4,4.3-27.2,1.2-40.8,2.2c-2.3,0.2-2.2-1.3-2.2-2.9
			c0-5.5-0.1-10.9-0.2-16.4c0.1-2.9,0.2-5.8,0.3-8.6c1.2-1.7,3-0.8,4.5-0.9c9.5-0.4,19,0.5,28.5-0.5l-0.1,0.1
			c1.9-1.3,3.4-2.9,4.1-5.1l-0.1,0.1c2-3.6,0.3-7.4,0.8-11.1c0-1.4-0.6-2.5-1.7-3.3c-1.1-0.2-1.7-0.8-2-1.8c-0.5-0.8-1.2-1-2.1-0.8
			c-10.6,0.3-21.3,1.2-31.9-0.4c0-9.2-0.1-18.4-0.1-27.7c11.4,0,22.8-0.2,34.1-0.1c5.4,0.1,10.1,2.8,14.8,5.1c4.2,1.9,7.2,4.9,9,9
			c3.6,6.3,5.8,13.1,6.8,20.3c1.1,0.8,0.5,2,0.7,3.1c-0.4,2.4,0.7,5-0.6,7.3c-1.1,7.7-3.4,14.8-7.6,21.4c0.1,1.6-1,2.3-2.3,2.8
			C700.9,548,698.6,551.2,694.9,552.6z"/>
		<path class="st30" d="M713.8,521.7c0-2.5,0.1-4.9,0.1-7.4c0.2-0.5,0.5-0.6,0.9-0.5c0,4,0,8.1,0,12.1c-0.2,0-0.4,0-0.6,0
			C714.1,524.5,714,523.1,713.8,521.7z"/>
		<path class="st31" d="M714.9,513.8c-0.3,0.2-0.6,0.3-0.9,0.5c-0.1-1-0.1-2-0.2-3c0.1-1.1,0.3-2.2,0.4-3.4c0.9,1.1,1.6,2.1,2.4,3
			C716.6,512.2,714.7,512.4,714.9,513.8z"/>
		<path class="st32" d="M725.9,494c-1-2.3-0.6-3.7,2.2-3.8C727.3,491.4,726.6,492.7,725.9,494z"/>
		<path class="st32" d="M721.9,501c-1-2.3-0.6-3.7,2.2-3.8C723.3,498.4,722.6,499.7,721.9,501z"/>
		<path class="st33" d="M730.1,486.1c-0.4-1.7-0.9-3.4,1.9-2.9c-0.1,0.6-0.2,1.2-0.3,1.7C731.5,485.7,731.1,486.2,730.1,486.1z"/>
		<path class="st34" d="M730.1,486.1c0.5-0.4,1.1-0.8,1.6-1.2c0.7,1.8,0.9,3.3-1.8,3.1C730,487.3,730.1,486.7,730.1,486.1z"/>
		<path class="st35" d="M703.9,545.9c0.8-0.9,1.5-1.9,2.3-2.8C706.7,545.4,706.2,546,703.9,545.9z"/>
		<path class="st36" d="M550,560.1c0.4-0.1,0.7-0.2,1.1-0.2c15.4-0.7,30.8-0.1,46.2-0.3c3.6,0,7.3,0,10.9,0c0.6-0.1,1.3,0.1,1.8,0.4
			c0,0.3,0,0.6,0,0.9l-0.2,0.3c-8.3,0.8-16.5,0.3-24.8,0.3c-10.1,0.1-20.2,0.1-30.3,0c-1.6,0-3.3,0.5-4.8-0.5
			C550,560.6,550,560.3,550,560.1z"/>
		<path class="st37" d="M550,560.9c20,0.1,40,0.1,59.9,0.2c-1,1.2-2.4,0.9-3.7,0.9c-17.4,0-34.7,0-52.1,0
			C552.7,562,551.1,562.4,550,560.9z"/>
		<path class="st38" d="M601,615.1c5.4-0.1,10.8-0.3,16.2-0.4c-5.5,2.7-11.3,3.3-17.2,1.3C600.2,615.6,600.5,615.3,601,615.1z"/>
		<path class="st39" d="M616.2,569.1c-0.3,5.6,1.6,11.5-2.3,16.6c-0.4-4.9,1.9-9.7,1-14.7c-0.3-0.3-0.4-0.7-0.3-1.1
			C615,569.4,615.5,569,616.2,569.1z"/>
		<path class="st40" d="M616.2,569.1c-0.4,0.3-0.8,0.5-1.2,0.8c-0.8-0.4-1-1.1-1-2c0-0.3,0-0.7-0.1-1c-0.1-0.1-0.2-0.3-0.2-0.4
			c0.3-2.6,0-4.8-3-5.4c-0.3,0-0.5-0.1-0.8-0.2c0-0.2,0-0.4,0-0.6c1.1-1.6,2.7-1.4,4.4-1.3c0.5,0.1,1,0.3,1.5,0.6
			c0.2,0.1,0.3,0.2,0.5,0.2C616.3,562.9,616.3,566,616.2,569.1z"/>
		<path class="st41" d="M610,588.9c-3.5,1.2-6.8,1.5-9.9-1c-0.4-0.2-0.5-0.4-0.4-0.6c0.1-0.2,0.2-0.3,0.4-0.3
			C603.1,588.7,606.9,587,610,588.9z"/>
		<path class="st42" d="M610.8,561.1c4.2,0.2,5.3,2.2,3.2,5.9C612.4,565.3,611.5,563.3,610.8,561.1z"/>
		<path class="st43" d="M600,587c0,0.3,0,0.6,0,0.9c-3.6,0.4-2.8,4.5-5.1,6C594.4,590.1,595.6,587.3,600,587z"/>
		<path class="st44" d="M591.4,612.8c1.7,0.4,3.6,0.4,4.7,2.1c0.5,0.4,0.5,0.8,0,1.1C594.8,614.4,591.4,616.1,591.4,612.8z"/>
		<path class="st45" d="M614.1,568c0.3,0.7,0.6,1.3,1,2c0,0.4,0,0.7-0.1,1.1C613.9,570.2,612.2,569.6,614.1,568z"/>
		<path class="st46" d="M596,616c0-0.4,0-0.7,0-1.1c1.6,0.1,3.3,0.2,4.9,0.2c-0.3,0.3-0.7,0.6-1,0.9C598.7,616,597.3,616,596,616z"
			/>
		<path class="st47" d="M649.1,475.9c-0.1-0.3-0.1-0.6,0-0.8c11.2,0,22.5,0,33.7,0c0,0.3,0,0.6,0,0.8
			C671.5,475.9,660.3,475.9,649.1,475.9z"/>
		<path class="st48" d="M707,491c-3-3-6-6-9-9C703,483,706,486,707,491z"/>
		<path class="st0" d="M903.8,467.7c0-1-0.3-2.1,0.1-3c1.7-3.8-4.1-10.9,3.4-11.5c18.1-1.5,22.4,1.3,23.3,12.3
			c1,11.6-4.1,17.2-15.7,17.2c-11.1,0-11.1,0-11.1-11.1C903.8,470.4,903.8,469.1,903.8,467.7z"/>
		<path class="st0" d="M944.1,611.8c0.1,4.2-0.1,8.3-1.3,12.4c-1.5,5-5,7.4-10,7.4c-5,0-8.7-2.1-10.1-7.2c-2.2-8.2-2.3-16.4,0-24.6
			c1.5-5.1,5.2-6.9,10.3-6.9c5,0,8.2,2.4,9.7,7C944,603.8,944.2,607.8,944.1,611.8z"/>
		<path class="st0" d="M1193.1,611.4c0.1,4.6,0,8.6-1.2,12.5c-1.5,5.2-4.9,7.9-10.2,7.7c-5-0.1-8.6-2.3-10-7.4
			c-2.1-8-2.2-16.1,0-24.1c1.4-5.1,5-7.1,10.1-7.2c5.2,0,8.5,2.3,10.1,7.2C1193.1,604,1193.2,608,1193.1,611.4z"/>
		<path class="st49" d="M1072.3,485.2c-1.3,0-2.7,0.2-4,0c-2.1-0.4-5.3,1.5-6.2-1.2c-1-2.8,0-6.1,2.1-8.4c3.6-3.9,8.4-3.7,13-2.5
			c4.2,1.1,5.4,4.5,5.9,8.3c0.3,2.6-0.1,4.2-3.3,3.9C1077.3,485,1074.8,485.2,1072.3,485.2z"/>
		<path class="st50" d="M615,560c-1.6,0.1-3.3,0.1-4.9,0.2c0,0-0.1-0.2-0.1-0.2c-0.4-0.2-0.7-0.6-0.9-1c-0.4-2,0.7-4.2-1-6
			c-0.7-1.3-0.8-2.6,0-3.9c1-3.6,2-7.3,3.1-10.9c0.7-0.4,1.5-0.7,2.2-1.1c0.6,0,1.2,0.1,1.8,0.1C615.7,544.7,615.9,552.4,615,560z"
			/>
		<path class="st51" d="M609.1,559c0.3,0.3,0.6,0.7,0.9,1c-19.6,0-39.2-0.1-58.8-0.1c1.6-1.4,3.5-0.8,5.2-0.8
			C573.9,559,591.5,559,609.1,559z"/>
		<path class="st52" d="M608,549c0,1.3,0,2.6,0,3.9c-0.1,0.6-0.1,1.3-0.2,1.9c-0.2,0-0.3,0-0.5,0c0-2.6,0-5.2,0-7.7
			c0.1,0.1,0.5,0.2,0.5,0.4C608,548,608,548.5,608,549z"/>
		<path class="st53" d="M682.1,527.1c-1.2,2-3.2,1.1-4.9,1.2c-9.4,0.1-18.7,0.1-28.1,0.2c0.9-2.1,2.8-1.4,4.3-1.4
			C663,527,672.6,527,682.1,527.1z"/>
		<path class="st54" d="M649.1,504.7c10.6,0.1,21.3,0.3,31.9,0.4c-4.1,1.9-8.4,0.6-12.6,0.8c-4.9,0.2-9.9,0.1-14.9,0
			C652,505.9,650.1,506.6,649.1,504.7z"/>
		<path class="st55" d="M686.9,511c1,3.8,2.4,7.6-0.8,11.1C686.4,518.4,685,514.6,686.9,511z"/>
		<path class="st56" d="M648,537c-0.3,0-0.7,0-1,0c0-2.6,0-5.2,0-7.8c0.3,0,0.7,0,1,0C648,531.8,648,534.4,648,537z"/>
		<path class="st57" d="M686.1,522c-0.1,2.7-0.8,5-4.1,5.1C683.4,525.4,684.8,523.7,686.1,522z"/>
		<path class="st58" d="M683.1,505.9c1.1,0.2,1.7,0.8,2,1.8C683.1,508.6,682.7,507.8,683.1,505.9z"/>
		<path class="st59" d="M615,560c0-7.6,0.1-15.3,0.1-22.9c0.2,0,0.5-0.1,0.7,0c0,7.5,0,15,0.1,22.5C615.6,559.7,615.3,559.9,615,560
			z"/>
		<path class="st60" d="M644,560c0-0.3,0-0.6,0-1c12.6,0,25.1,0,37.7,0c1.8,0,3.7-0.6,5.2,0.8C672.6,559.9,658.3,559.9,644,560z"/>
		<path class="st61" d="M650.3,557.2c10.8,0,21.6,0,32.3,0c0,0.2,0,0.3,0,0.5c-10.8,0-21.7,0-32.5,0
			C650.2,557.5,650.3,557.3,650.3,557.2z"/>
		<path class="st62" d="M647.8,539.2c0,5.2,0,10.5,0,15.7c-0.2,0-0.3,0-0.5,0c0-5.2,0-10.4,0-15.6
			C647.4,539.3,647.6,539.2,647.8,539.2z"/>
	</g>
</g>
</svg>
